<svg width="96" height="104" fill="none" xmlns="http://www.w3.org/2000/svg"><g filter="url(#filter0_d)" fill-rule="evenodd" clip-rule="evenodd"><path d="M48.466 17c14.623 0 26.476 11.864 26.476 26.5 0 14.635-11.853 26.5-26.476 26.5C33.844 70 21.99 58.135 21.99 43.5c0-14.636 11.854-26.5 26.476-26.5z" fill="#FF4361"/><path d="M48.466 17c14.623 0 26.476 11.864 26.476 26.5 0 14.635-11.853 26.5-26.476 26.5C33.844 70 21.99 58.135 21.99 43.5c0-14.636 11.854-26.5 26.476-26.5z" fill="url(#paint0_linear)"/></g><path fill-rule="evenodd" clip-rule="evenodd" d="M42.972 1h9.991c16.554 0 29.973 13.43 29.973 30v10c0 16.568-13.42 30-29.973 30h-9.99c-16.554 0-29.974-13.432-29.974-30V31c0-16.569 13.42-30 29.973-30z" fill="#FF4361"/><path fill-rule="evenodd" clip-rule="evenodd" d="M42.972 1h9.991c16.554 0 29.973 13.43 29.973 30v10c0 16.568-13.42 30-29.973 30h-9.99c-16.554 0-29.974-13.432-29.974-30V31c0-16.569 13.42-30 29.973-30z" fill="url(#paint1_linear)"/><path fill-rule="evenodd" clip-rule="evenodd" d="M56.908 31.003a.557.557 0 00-.506-.337h-6.616l6.53-10.772a.604.604 0 00.017-.592.555.555 0 00-.49-.303h-8.932a.557.557 0 00-.5.322l-8.375 17.5a.606.606 0 00.025.568.554.554 0 00.475.276h5.741l-6.256 15.524a.599.599 0 00.224.724.545.545 0 00.718-.121L56.83 31.625a.605.605 0 00.079-.622z" fill="#fff"/><defs><linearGradient id="paint0_linear" x1="52.598" y1="102.635" x2="107.605" y2="39.414" gradientUnits="userSpaceOnUse"><stop stop-color="#F80759"/><stop offset="1" stop-color="#BC4E9C"/></linearGradient><linearGradient id="paint1_linear" x1="53.376" y1="113.413" x2="125.385" y2="30.651" gradientUnits="userSpaceOnUse"><stop stop-color="#F80759"/><stop offset="1" stop-color="#BC4E9C"/></linearGradient><filter id="filter0_d" x=".99" y="9" width="94.952" height="95" filterUnits="userSpaceOnUse" color-interpolation-filters="sRGB"><feFlood flood-opacity="0" result="BackgroundImageFix"/><feColorMatrix in="SourceAlpha" values="0 0 0 0 0 0 0 0 0 0 0 0 0 0 0 0 0 0 127 0"/><feOffset dy="13"/><feGaussianBlur stdDeviation="10.5"/><feColorMatrix values="0 0 0 0 0.898039 0 0 0 0 0.117647 0 0 0 0 0.435294 0 0 0 0.3 0"/><feBlend in2="BackgroundImageFix" result="effect1_dropShadow"/><feBlend in="SourceGraphic" in2="effect1_dropShadow" result="shape"/></filter></defs></svg>