<svg width="96" height="104" fill="none" xmlns="http://www.w3.org/2000/svg"><g filter="url(#filter0_d)" fill-rule="evenodd" clip-rule="evenodd"><path d="M48.214 17c14.623 0 26.477 11.864 26.477 26.5 0 14.635-11.854 26.5-26.477 26.5-14.622 0-26.476-11.865-26.476-26.5 0-14.636 11.854-26.5 26.476-26.5z" fill="#FF4361"/><path d="M48.214 17c14.623 0 26.477 11.864 26.477 26.5 0 14.635-11.854 26.5-26.477 26.5-14.622 0-26.476-11.865-26.476-26.5 0-14.636 11.854-26.5 26.476-26.5z" fill="url(#paint0_linear)"/></g><path fill-rule="evenodd" clip-rule="evenodd" d="M42.72 1h9.991c16.554 0 29.973 13.43 29.973 30v10c0 16.568-13.42 30-29.973 30h-9.99c-16.554 0-29.974-13.432-29.974-30V31c0-16.569 13.42-30 29.973-30z" fill="#FF4361"/><path fill-rule="evenodd" clip-rule="evenodd" d="M42.72 1h9.991c16.554 0 29.973 13.43 29.973 30v10c0 16.568-13.42 30-29.973 30h-9.99c-16.554 0-29.974-13.432-29.974-30V31c0-16.569 13.42-30 29.973-30z" fill="url(#paint1_linear)"/><path fill-rule="evenodd" clip-rule="evenodd" d="M51.144 41.637a1.05 1.05 0 00.318-.762v-2.709h11.24v8.127c0 .743-.262 1.382-.787 1.912a2.561 2.561 0 01-1.89.796h-24.62a2.561 2.561 0 01-1.89-.796 2.623 2.623 0 01-.787-1.913v-8.126h11.24v2.709c0 .293.106.547.318.762.212.214.463.322.753.322h5.352c.29 0 .541-.108.753-.322zm-1.288-3.47h-4.282v2.166h4.282v-2.167zm12.06-10.04a2.56 2.56 0 00-1.89-.796h-5.888v-2.708c0-.452-.156-.835-.469-1.152a1.542 1.542 0 00-1.137-.474h-9.634c-.446 0-.825.159-1.137.474-.313.316-.469.7-.469 1.152v2.708h-5.887a2.56 2.56 0 00-1.89.796 2.62 2.62 0 00-.787 1.913v6.5h29.974v-6.5a2.62 2.62 0 00-.787-1.913zm-9.92-.796h-8.563v-2.167h8.564v2.167z" fill="#fff"/><defs><linearGradient id="paint0_linear" x1="52.346" y1="102.635" x2="107.353" y2="39.414" gradientUnits="userSpaceOnUse"><stop stop-color="#F80759"/><stop offset="1" stop-color="#BC4E9C"/></linearGradient><linearGradient id="paint1_linear" x1="53.124" y1="113.413" x2="125.133" y2="30.651" gradientUnits="userSpaceOnUse"><stop stop-color="#FF416C"/><stop offset="1" stop-color="#FF4B2B"/></linearGradient><filter id="filter0_d" x=".738" y="9" width="94.952" height="95" filterUnits="userSpaceOnUse" color-interpolation-filters="sRGB"><feFlood flood-opacity="0" result="BackgroundImageFix"/><feColorMatrix in="SourceAlpha" values="0 0 0 0 0 0 0 0 0 0 0 0 0 0 0 0 0 0 127 0"/><feOffset dy="13"/><feGaussianBlur stdDeviation="10.5"/><feColorMatrix values="0 0 0 0 1 0 0 0 0 0.266667 0 0 0 0 0.341176 0 0 0 0.3 0"/><feBlend in2="BackgroundImageFix" result="effect1_dropShadow"/><feBlend in="SourceGraphic" in2="effect1_dropShadow" result="shape"/></filter></defs></svg>