<svg width="96" height="104" fill="none" xmlns="http://www.w3.org/2000/svg"><g filter="url(#filter0_d)" fill-rule="evenodd" clip-rule="evenodd"><path d="M47.704 17C62.326 17 74.18 28.864 74.18 43.5c0 14.635-11.854 26.5-26.476 26.5S21.228 58.135 21.228 43.5c0-14.636 11.854-26.5 26.476-26.5z" fill="#FF4361"/><path d="M47.704 17C62.326 17 74.18 28.864 74.18 43.5c0 14.635-11.854 26.5-26.476 26.5S21.228 58.135 21.228 43.5c0-14.636 11.854-26.5 26.476-26.5z" fill="url(#paint0_linear)"/></g><path fill-rule="evenodd" clip-rule="evenodd" d="M42.209 1H52.2c16.554 0 29.973 13.43 29.973 30v10c0 16.568-13.42 30-29.973 30h-9.991c-16.554 0-29.973-13.432-29.973-30V31c0-16.569 13.42-30 29.973-30z" fill="#FF4361"/><path fill-rule="evenodd" clip-rule="evenodd" d="M42.209 1H52.2c16.554 0 29.973 13.43 29.973 30v10c0 16.568-13.42 30-29.973 30h-9.991c-16.554 0-29.973-13.432-29.973-30V31c0-16.569 13.42-30 29.973-30z" fill="url(#paint1_linear)"/><path fill-rule="evenodd" clip-rule="evenodd" d="M60.293 23h-23.18a2.907 2.907 0 00-2.897 2.899v26.1l5.795-5.8h20.282a2.907 2.907 0 002.897-2.9v-17.4c0-1.595-1.304-2.9-2.897-2.9z" fill="#FEFAFC"/><defs><linearGradient id="paint0_linear" x1="51.835" y1="102.635" x2="106.842" y2="39.414" gradientUnits="userSpaceOnUse"><stop stop-color="#F80759"/><stop offset="1" stop-color="#BC4E9C"/></linearGradient><linearGradient id="paint1_linear" x1="52.613" y1="113.413" x2="124.622" y2="30.651" gradientUnits="userSpaceOnUse"><stop stop-color="#F46B45"/><stop offset="1" stop-color="#EEA849"/></linearGradient><filter id="filter0_d" x=".228" y="9" width="94.952" height="95" filterUnits="userSpaceOnUse" color-interpolation-filters="sRGB"><feFlood flood-opacity="0" result="BackgroundImageFix"/><feColorMatrix in="SourceAlpha" values="0 0 0 0 0 0 0 0 0 0 0 0 0 0 0 0 0 0 127 0"/><feOffset dy="13"/><feGaussianBlur stdDeviation="10.5"/><feColorMatrix values="0 0 0 0 0.94902 0 0 0 0 0.501961 0 0 0 0 0.27451 0 0 0 0.3 0"/><feBlend in2="BackgroundImageFix" result="effect1_dropShadow"/><feBlend in="SourceGraphic" in2="effect1_dropShadow" result="shape"/></filter></defs></svg>