<svg width="51" height="45" fill="none" xmlns="http://www.w3.org/2000/svg"><path opacity=".5" d="M30.99.44s13.428-.87 13.428 13.11c0 9.314 2.46 12.57 4.104 13.71.6.416.522 1.305-.108 1.673-1.812 1.058-5.082 2.467-9.114 1.97-.264-.035-.39.299-.168.439l9.378 5.285c1.542.872 2.49 2.474 2.49 4.21v1.1c0 1.216-1.008 2.198-2.256 2.198H35.388l-14.286-5.999 3.39-36.473C27.774.236 30.99.44 30.99.44z" fill="#EA3A60"/><path d="M3.552 14.612c.444-.327.732-.801.738-1.339C4.32 10.227 5.334.44 17.226.44c.162 0 .312.006.468.012.156-.006.306-.012.468-.012 11.886 0 12.906 9.776 12.93 12.828.006.532.276 1.012.714 1.328 1.26.912 1.914 2.455 1.32 3.87-.9 2.146-2.73 3.964-3.63 4.765a1.637 1.637 0 00-.534 1.164c-.186 4.94-2.286 6.718-3.612 7.36-.792.38-1.32 1.088-1.32 1.901 0 1.017 1.11 1.79 1.986 2.339l5.46 1.187c2.28.497 3.906 2.467 3.906 4.747v2.199H9.666L6.534 25.79a15.974 15.974 0 01-.114-1.39 1.627 1.627 0 00-.534-1.163c-.9-.807-2.754-2.643-3.648-4.806-.576-1.41.078-2.906 1.314-3.818z" fill="#EA3A60"/><path d="M0 34.702c0 5.204 4.332 9.425 9.672 9.425 5.34 0 9.672-4.221 9.672-9.425 0-5.204-4.332-9.425-9.672-9.425-5.34 0-9.672 4.221-9.672 9.425z" fill="#fff"/><path d="M9.672 40.702a.872.872 0 00.882-.86V29.563c0-.473-.396-.854-.882-.854s-.882.38-.882.854v10.285a.875.875 0 00.882.854z" fill="#EA3A60"/><path d="M4.398 35.562h10.548c.486 0 .882-.386.882-.854a.872.872 0 00-.882-.86H4.392a.872.872 0 00-.882.86.88.88 0 00.888.854z" fill="#EA3A60"/></svg>