<svg width="45" height="45" fill="none" xmlns="http://www.w3.org/2000/svg"><path fill-rule="evenodd" clip-rule="evenodd" d="M41.119 11.974c-1.923-3.377-4.531-6.051-7.826-8.022C29.998 1.98 26.401.996 22.5.996c-3.901 0-7.5.985-10.794 2.956-3.294 1.971-5.903 4.645-7.826 8.022C1.958 15.351.996 19.04.996 23.038c0 4.803 1.367 9.123 4.102 12.959 2.735 3.836 6.267 6.491 10.598 7.964.504.095.877.028 1.12-.2.242-.23.364-.518.364-.862l-.014-1.55c-.01-.975-.015-1.827-.015-2.553l-.643.114c-.411.076-.93.11-1.555.1a11.602 11.602 0 01-1.945-.2 4.306 4.306 0 01-1.876-.86A3.642 3.642 0 019.9 36.183l-.28-.661c-.187-.44-.48-.928-.882-1.463-.401-.536-.807-.9-1.218-1.09l-.196-.144a2.082 2.082 0 01-.364-.345 1.581 1.581 0 01-.252-.402c-.056-.134-.01-.244.14-.33.15-.087.42-.13.812-.13l.56.087c.373.076.835.306 1.386.688.55.383 1.003.88 1.358 1.492.43.785.947 1.383 1.554 1.795.606.411 1.218.617 1.834.617a7.8 7.8 0 001.596-.143c.447-.097.867-.24 1.26-.431.168-1.283.625-2.268 1.371-2.956a18.81 18.81 0 01-2.87-.517c-.849-.23-1.726-.603-2.631-1.12a7.575 7.575 0 01-2.254-1.923c-.598-.766-1.088-1.77-1.47-3.014-.383-1.243-.574-2.679-.574-4.305 0-2.316.737-4.286 2.212-5.913-.69-1.74-.625-3.692.196-5.854.541-.173 1.344-.043 2.408.387 1.064.43 1.843.8 2.338 1.105a23.9 23.9 0 011.19.776 19.407 19.407 0 015.376-.747c1.848 0 3.64.249 5.377.747l1.063-.69c.728-.459 1.587-.88 2.576-1.263.989-.382 1.746-.488 2.268-.315.84 2.162.915 4.114.224 5.855 1.474 1.627 2.212 3.598 2.212 5.913 0 1.627-.192 3.066-.574 4.318-.383 1.255-.877 2.259-1.484 3.014a7.858 7.858 0 01-2.268 1.909c-.905.517-1.782.89-2.632 1.12-.85.23-1.806.403-2.87.517.97.86 1.456 2.219 1.456 4.075V42.9c0 .344.117.63.35.86.233.23.602.297 1.106.201 4.33-1.473 7.863-4.128 10.598-7.965 2.734-3.835 4.102-8.155 4.102-12.958-.001-3.998-.963-7.686-2.885-11.063z" fill="#EA3A60"/></svg>